<svg xmlns="http://www.w3.org/2000/svg" xmlns:xlink="http://www.w3.org/1999/xlink" width="88" height="88" viewBox="0 0 88 88">
  <defs>
    <clipPath id="clip-path">
      <rect id="Rectángulo_35606" data-name="Rectángulo 35606" width="88" height="88" transform="translate(505 3839)" fill="#fff" stroke="#707070" stroke-width="1"/>
    </clipPath>
  </defs>
  <g id="Enmascarar_grupo_233" data-name="Enmascarar grupo 233" transform="translate(-505 -3839)" clip-path="url(#clip-path)">
    <g id="ley" transform="translate(505 3839)">
      <g id="Grupo_175716" data-name="Grupo 175716">
        <g id="Grupo_175715" data-name="Grupo 175715">
          <g id="Grupo_175709" data-name="Grupo 175709">
            <g id="Grupo_175708" data-name="Grupo 175708">
              <path id="Trazado_124424" data-name="Trazado 124424" d="M12.234,81.142h-3.4a7.549,7.549,0,0,1-7.549-7.549V8.838A7.549,7.549,0,0,1,8.838,1.289h3.4Z" fill="#964f09"/>
              <path id="Trazado_124425" data-name="Trazado 124425" d="M57.118,81.142H12.234V1.289H57.118a3.393,3.393,0,0,1,3.393,3.393V77.749A3.393,3.393,0,0,1,57.118,81.142Z" fill="#e68d35"/>
              <path id="Trazado_124426" data-name="Trazado 124426" d="M57.118,1.289H50.243a3.393,3.393,0,0,1,3.393,3.393V77.749a3.393,3.393,0,0,1-3.393,3.393h6.875a3.393,3.393,0,0,0,3.393-3.393V4.682a3.393,3.393,0,0,0-3.393-3.393Z" fill="#d47619"/>
              <path id="Trazado_124427" data-name="Trazado 124427" d="M60.514,76.468H9.241a3.4,3.4,0,0,1-3.4-3.4V69.438a3.4,3.4,0,0,1,3.4-3.4H60.514Z" fill="#fff"/>
              <path id="Trazado_124428" data-name="Trazado 124428" d="M19.149,81.176l-6.915,5.535V71.364h6.915Z" fill="#73a4ff"/>
            </g>
            <path id="Trazado_124429" data-name="Trazado 124429" d="M22.879,12.627H49.866v17.9H22.879Z" fill="#fff"/>
          </g>
          <g id="Grupo_175714" data-name="Grupo 175714">
            <path id="Trazado_124430" data-name="Trazado 124430" d="M76.2,86.711H44.767a2.784,2.784,0,0,1-2.784-2.784h0a2.784,2.784,0,0,1,2.784-2.784H76.2a2.784,2.784,0,0,1,2.784,2.784h0A2.784,2.784,0,0,1,76.2,86.711Z" fill="#73a4ff"/>
            <path id="Trazado_124431" data-name="Trazado 124431" d="M76.2,81.142H69.325a2.784,2.784,0,0,1,2.784,2.784h0a2.784,2.784,0,0,1-2.784,2.784H76.2a2.784,2.784,0,0,0,2.784-2.784h0A2.784,2.784,0,0,0,76.2,81.142Z" fill="#5c95ff"/>
            <path id="Trazado_124432" data-name="Trazado 124432" d="M71.926,81.15H49.04a5.839,5.839,0,0,1,5.839-5.839H66.087a5.839,5.839,0,0,1,5.839,5.839h0Z" fill="#ffd52b"/>
            <path id="Trazado_124433" data-name="Trazado 124433" d="M66.087,75.309H59.212a5.839,5.839,0,0,1,5.839,5.839h6.875A5.839,5.839,0,0,0,66.087,75.309Z" fill="#fcca00"/>
            <g id="Grupo_175710" data-name="Grupo 175710">
              <path id="Trazado_124434" data-name="Trazado 124434" d="M63.291,75.225H57.675V38.912a2.808,2.808,0,0,1,5.616,0Z" fill="#73a4ff"/>
            </g>
            <path id="Trazado_124435" data-name="Trazado 124435" d="M69.9,51.209H51.068v0a9.252,9.252,0,0,1,9.252-9.252h.326A9.252,9.252,0,0,1,69.9,51.206Z" fill="#ffd52b"/>
            <path id="Trazado_124436" data-name="Trazado 124436" d="M60.646,41.954H60.32a9.227,9.227,0,0,0-3.275.6,9.254,9.254,0,0,1,5.978,8.654v0H69.9v0A9.252,9.252,0,0,0,60.646,41.954Z" fill="#fcca00"/>
            <g id="Grupo_175713" data-name="Grupo 175713">
              <g id="Grupo_175711" data-name="Grupo 175711">
                <path id="Trazado_124437" data-name="Trazado 124437" d="M48.131,69.5H37.064a2.809,2.809,0,0,1,0-5.619H48.131a2.809,2.809,0,0,1,0,5.619Z" fill="#ffd52b"/>
              </g>
              <path id="Trazado_124438" data-name="Trazado 124438" d="M48.131,63.877H41.256a2.809,2.809,0,0,1,0,5.619h6.875a2.809,2.809,0,0,0,0-5.619Z" fill="#fcca00"/>
              <g id="Grupo_175712" data-name="Grupo 175712">
                <path id="Trazado_124439" data-name="Trazado 124439" d="M83.9,69.5H72.836a2.809,2.809,0,0,1,0-5.619H83.9a2.809,2.809,0,0,1,0,5.619Z" fill="#ffd52b"/>
              </g>
              <path id="Trazado_124440" data-name="Trazado 124440" d="M83.9,63.877H77.028a2.809,2.809,0,0,1,0,5.619H83.9a2.809,2.809,0,0,0,0-5.619Z" fill="#fcca00"/>
            </g>
          </g>
        </g>
        <path id="Trazado_124441" data-name="Trazado 124441" d="M83.2,50.085H37.771a1.289,1.289,0,1,0,0,2.578H83.2a1.289,1.289,0,0,0,0-2.578Z" fill="#ffd52b"/>
      </g>
      <g id="Grupo_175717" data-name="Grupo 175717">
        <path id="Trazado_124442" data-name="Trazado 124442" d="M49.865,31.812a1.289,1.289,0,0,0,1.289-1.289v-17.9a1.289,1.289,0,0,0-1.289-1.289H22.879a1.289,1.289,0,0,0-1.289,1.289v17.9a1.289,1.289,0,0,0,1.289,1.289Zm-25.7-17.9H48.576V29.234H24.168Z" fill="#060606"/>
        <path id="Trazado_124443" data-name="Trazado 124443" d="M84.22,62.6l-3.951-9.939H83.2a1.289,1.289,0,0,0,0-2.578H71.127a10.566,10.566,0,0,0-6.547-8.655V38.912A4.1,4.1,0,0,0,61.8,35.034V4.682A4.687,4.687,0,0,0,57.118,0H8.837A8.847,8.847,0,0,0,0,8.837v6.288a1.289,1.289,0,0,0,2.578,0V8.837A6.266,6.266,0,0,1,8.837,2.578h2.107V64.745h-1.7a4.7,4.7,0,0,0-4.694,4.694v3.625a4.7,4.7,0,0,0,4.694,4.694h1.7v2.1H8.837a6.267,6.267,0,0,1-6.259-6.26V21.656a1.289,1.289,0,1,0-2.578,0V73.593a8.848,8.848,0,0,0,8.837,8.838h2.107v4.28a1.3,1.3,0,0,0,2.095,1.006l6.6-5.287H40.979A4.114,4.114,0,0,0,44.767,88H66.514a1.289,1.289,0,0,0,0-2.578H44.767a1.5,1.5,0,0,1,0-2.991H76.2a1.5,1.5,0,0,1,0,2.991H73.383a1.289,1.289,0,0,0,0,2.578H76.2c5.24,0,5.249-8.147,0-8.147H73.1a7.139,7.139,0,0,0-7.009-5.833H64.58V52.663H76.47L72.519,62.6a4.1,4.1,0,0,0,.317,8.184H83.9A4.1,4.1,0,0,0,84.22,62.6ZM56.386,64.745H51.738a4.1,4.1,0,0,0-3.29-2.143L44.5,52.663H56.386Zm-19.323.421H48.131a1.52,1.52,0,0,1,0,3.041H37.064a1.52,1.52,0,0,1,0-3.041Zm2.463-2.578L42.6,54.863l3.071,7.725ZM68.506,49.919H52.461a7.976,7.976,0,0,1,7.86-6.677A8.088,8.088,0,0,1,68.506,49.919ZM62,40.755a12.452,12.452,0,0,0-3.038,0V38.912a1.519,1.519,0,0,1,3.038,0ZM13.523,2.578h43.6a2.106,2.106,0,0,1,2.1,2.1V35.015a4.1,4.1,0,0,0-2.836,3.9v2.517a10.567,10.567,0,0,0-6.547,8.655H37.771a1.289,1.289,0,0,0,0,2.578H40.7L36.747,62.6a4.1,4.1,0,0,0-3.29,2.143H13.523Zm0,70.075H17.86v7.9l-4.337,3.471Zm6.915,7.2v-2.1H48.611a7.077,7.077,0,0,0-.74,2.1H20.438Zm50.011,0H50.517A4.558,4.558,0,0,1,54.88,76.6H66.087A4.558,4.558,0,0,1,70.449,79.853ZM54.88,74.02a7.085,7.085,0,0,0-3.889,1.159H20.438V71.364a1.289,1.289,0,0,0-1.289-1.289H12.234a1.289,1.289,0,0,0-1.289,1.289v3.815h-1.7a2.118,2.118,0,0,1-2.115-2.115V69.438a2.118,2.118,0,0,1,2.115-2.115H33.016a4.1,4.1,0,0,0,4.047,3.462H48.131a4.1,4.1,0,0,0,4.047-3.462h4.208v6.7H54.88ZM62,73.936H58.964V52.663H62ZM81.44,62.588H75.3l3.071-7.725ZM83.9,68.207H72.836a1.52,1.52,0,0,1,0-3.041H83.9a1.52,1.52,0,0,1,0,3.041Z" fill="#060606"/>
      </g>
    </g>
  </g>
</svg>
