<svg xmlns="http://www.w3.org/2000/svg" xmlns:xlink="http://www.w3.org/1999/xlink" width="88" height="88" viewBox="0 0 88 88">
  <defs>
    <clipPath id="clip-path">
      <rect id="Rectángulo_35605" data-name="Rectángulo 35605" width="88" height="88" transform="translate(254 3839)" fill="#fff" stroke="#707070" stroke-width="1"/>
    </clipPath>
  </defs>
  <g id="Enmascarar_grupo_232" data-name="Enmascarar grupo 232" transform="translate(-254 -3839)" clip-path="url(#clip-path)">
    <g id="guia" transform="translate(254 3839)">
      <g id="Grupo_175693" data-name="Grupo 175693">
        <path id="Trazado_124401" data-name="Trazado 124401" d="M16.46,78.133H8.11a6.026,6.026,0,0,1-6.019-6.019H1.919v5.793A6.191,6.191,0,0,0,8.11,84.1h8.349V78.133Z" fill="#bb5d4c"/>
        <path id="Trazado_124402" data-name="Trazado 124402" d="M63.088,71.77v6.019a.344.344,0,0,1-.344.344H25.32V84.1H67.853a.859.859,0,0,0,.859-.859V71.769Z" fill="#bb5d4c"/>
      </g>
      <g id="Grupo_175694" data-name="Grupo 175694">
        <path id="Trazado_124403" data-name="Trazado 124403" d="M7.748,78.294A6.191,6.191,0,0,1,1.92,72.114v5.793A6.191,6.191,0,0,0,8.11,84.1h5.815a6.19,6.19,0,0,1-6.178-5.8Z" fill="#a44f3e"/>
      </g>
      <g id="Grupo_175696" data-name="Grupo 175696">
        <path id="Trazado_124404" data-name="Trazado 124404" d="M85.221,11.489H68.712V65.064a.859.859,0,0,1-.859.859H63.26v5.846H85.221a.859.859,0,0,0,.859-.859V12.349a.859.859,0,0,0-.859-.859Z" fill="#dff6fd"/>
        <g id="Grupo_175695" data-name="Grupo 175695">
          <path id="Trazado_124405" data-name="Trazado 124405" d="M68.712,11.489V11.6a.85.85,0,0,1,.419-.113Z" fill="#c8effe"/>
          <path id="Trazado_124406" data-name="Trazado 124406" d="M68.272,70.91v-5.1a.85.85,0,0,1-.419.113H63.26v5.846h5.871a.859.859,0,0,1-.859-.859Z" fill="#c8effe"/>
        </g>
        <path id="Trazado_124407" data-name="Trazado 124407" d="M8.11,65.923a6.191,6.191,0,0,0,0,12.382H16.46V71.769h8.86V78.3H62.744a.516.516,0,0,0,.516-.516V65.923H8.11Z" fill="#fff"/>
      </g>
      <path id="Trazado_124408" data-name="Trazado 124408" d="M16.46,71.769h1.6a6.191,6.191,0,0,1,6.181-5.846H8.11a6.191,6.191,0,0,0,0,12.382H16.46Z" fill="#f2fbff"/>
      <path id="Trazado_124409" data-name="Trazado 124409" d="M16.46,78.3a6.19,6.19,0,0,1,.284-12.374H8.111a6.191,6.191,0,0,0,0,12.382H16.46V78.3Z" fill="#01d0fb"/>
      <g id="Grupo_175697" data-name="Grupo 175697">
        <path id="Trazado_124410" data-name="Trazado 124410" d="M25.32,86.223V71.769H16.46V86.223a.487.487,0,0,0,.764.4l3.666-2.537,3.666,2.537a.487.487,0,0,0,.764-.4Z" fill="#fb2b3a"/>
      </g>
      <g id="Grupo_175699" data-name="Grupo 175699">
        <g id="Grupo_175698" data-name="Grupo 175698">
          <path id="Trazado_124411" data-name="Trazado 124411" d="M20.281,71.769H16.46V86.223a.487.487,0,0,0,.764.4l3.058-2.116Z" fill="#e41f2d"/>
        </g>
      </g>
      <g id="Grupo_175700" data-name="Grupo 175700">
        <path id="Trazado_124412" data-name="Trazado 124412" d="M8.111,1.289A6.191,6.191,0,0,0,1.92,7.48V72.114a6.191,6.191,0,0,1,6.191-6.191H67.853a.859.859,0,0,0,.859-.859V2.148a.859.859,0,0,0-.859-.859Z" fill="#883f2e"/>
      </g>
      <g id="Grupo_175701" data-name="Grupo 175701">
        <path id="Trazado_124413" data-name="Trazado 124413" d="M8.111,65.923h6.532V1.289H8.111A6.191,6.191,0,0,0,1.92,7.48V72.114A6.191,6.191,0,0,1,8.111,65.923Z" fill="#a44f3e"/>
      </g>
      <g id="Grupo_175702" data-name="Grupo 175702">
        <path id="Trazado_124414" data-name="Trazado 124414" d="M6.356,7.48a6.191,6.191,0,0,1,6.191-6.191H8.11A6.191,6.191,0,0,0,1.92,7.48V72.114a6.192,6.192,0,0,1,4.436-5.937Z" fill="#883f2e"/>
      </g>
      <g id="Grupo_175703" data-name="Grupo 175703">
        <path id="Trazado_124415" data-name="Trazado 124415" d="M20.322,59.728V7.484a.516.516,0,0,1,.516-.516h41.68a.516.516,0,0,1,.516.516V59.728a.516.516,0,0,1-.516.516H20.837a.516.516,0,0,1-.516-.516Z" fill="#ca6e59"/>
      </g>
      <g id="Grupo_175704" data-name="Grupo 175704">
        <path id="Trazado_124416" data-name="Trazado 124416" d="M26.125,59.728V7.484a.516.516,0,0,1,.516-.516h-5.8a.516.516,0,0,0-.516.516V59.728a.516.516,0,0,0,.516.516h5.8A.516.516,0,0,1,26.125,59.728Z" fill="#bb5d4c"/>
      </g>
      <g id="Grupo_175705" data-name="Grupo 175705">
        <path id="Trazado_124417" data-name="Trazado 124417" d="M32.135,25.84V17.632a.516.516,0,0,1,.516-.516H50.7a.516.516,0,0,1,.516.516V25.84a.516.516,0,0,1-.516.516H32.651A.516.516,0,0,1,32.135,25.84Z" fill="#fac600"/>
      </g>
      <g id="Grupo_175706" data-name="Grupo 175706">
        <path id="Trazado_124418" data-name="Trazado 124418" d="M37.979,25.84V17.632a.516.516,0,0,1,.516-.516H32.651a.516.516,0,0,0-.516.516V25.84a.516.516,0,0,0,.516.516h5.843A.516.516,0,0,1,37.979,25.84Z" fill="#e8b800"/>
      </g>
      <g id="Grupo_175707" data-name="Grupo 175707">
        <path id="Trazado_124419" data-name="Trazado 124419" d="M86.08,55.542a1.289,1.289,0,0,0,1.289-1.289v-41.9A2.151,2.151,0,0,0,85.221,10.2H70V2.148A2.151,2.151,0,0,0,67.853,0H8.11A7.488,7.488,0,0,0,.631,7.48V77.907a7.488,7.488,0,0,0,7.48,7.48h7.06v.836a1.775,1.775,0,0,0,2.786,1.46l2.933-2.03,2.933,2.03a1.776,1.776,0,0,0,2.786-1.46v-.836H67.853A2.151,2.151,0,0,0,70,83.239V73.058h15.22a2.151,2.151,0,0,0,2.148-2.148V60.269a1.289,1.289,0,0,0-2.578,0V70.48H64.549V67.213h3.3A2.151,2.151,0,0,0,70,65.064v-3.4h8.253a1.289,1.289,0,1,0,0-2.578H70V54.164h8.253a1.289,1.289,0,1,0,0-2.578H70V46.667h8.253a1.289,1.289,0,0,0,0-2.578H70V39.17h8.253a1.289,1.289,0,0,0,0-2.578H70V31.672h8.253a1.289,1.289,0,1,0,0-2.578H70V24.175h8.253a1.289,1.289,0,1,0,0-2.578H70V12.778h14.79V54.252a1.289,1.289,0,0,0,1.289,1.289ZM3.209,7.48a4.907,4.907,0,0,1,4.9-4.9h5.243V64.634H8.11a7.448,7.448,0,0,0-4.9,1.834V7.48Zm4.9,59.733H11.1a7.466,7.466,0,0,0,0,9.8H8.11a4.9,4.9,0,1,1,0-9.8Zm7.06,15.6H8.11a4.907,4.907,0,0,1-4.9-4.9v-.151a7.446,7.446,0,0,0,4.9,1.837h7.06v3.215Zm8.86,1.883-2.408-1.666a1.289,1.289,0,0,0-1.467,0l-2.408,1.666V73.058h6.282ZM67.423,73.058v9.751H26.609V79.594h4.672a1.289,1.289,0,0,0,0-2.578H26.609V71.769A1.289,1.289,0,0,0,25.32,70.48H16.46a1.289,1.289,0,0,0-1.289,1.289v4.986a4.9,4.9,0,0,1,1.573-9.542H61.971V70.48H51.446a1.289,1.289,0,0,0,0,2.578H61.971v3.958H37.3a1.289,1.289,0,0,0,0,2.578H62.744a1.807,1.807,0,0,0,1.8-1.8V73.058Zm0-8.424H15.931V2.578H67.423Z"/>
        <path id="Trazado_124420" data-name="Trazado 124420" d="M20.837,61.533h41.68a1.807,1.807,0,0,0,1.8-1.8V22a1.289,1.289,0,1,0-2.578,0V58.955H21.611V8.258H61.744v7.727a1.289,1.289,0,0,0,2.578,0v-8.5a1.807,1.807,0,0,0-1.8-1.8H20.837a1.807,1.807,0,0,0-1.8,1.8V59.728a1.807,1.807,0,0,0,1.8,1.8Z"/>
        <path id="Trazado_124421" data-name="Trazado 124421" d="M52.508,17.632a1.807,1.807,0,0,0-1.8-1.8H32.651a1.807,1.807,0,0,0-1.8,1.8V25.84a1.807,1.807,0,0,0,1.8,1.8H50.7a1.807,1.807,0,0,0,1.8-1.8ZM49.93,25.067H33.425V18.406H49.93Z"/>
        <path id="Trazado_124422" data-name="Trazado 124422" d="M51.219,46.5H32.135a1.289,1.289,0,1,0,0,2.578H51.219a1.289,1.289,0,1,0,0-2.578Z"/>
        <path id="Trazado_124423" data-name="Trazado 124423" d="M51.219,40.893H32.135a1.289,1.289,0,1,0,0,2.578H51.219a1.289,1.289,0,1,0,0-2.578Z"/>
      </g>
    </g>
  </g>
</svg>
