<svg xmlns="http://www.w3.org/2000/svg" xmlns:xlink="http://www.w3.org/1999/xlink" width="127" height="99" viewBox="0 0 127 99">
  <defs>
    <clipPath id="clip-path">
      <rect id="Rect치ngulo_35565" data-name="Rect치ngulo 35565" width="75" height="75" transform="translate(-0.251 -0.441)" fill="#fff" stroke="#707070" stroke-width="1"/>
    </clipPath>
  </defs>
  <g id="Grupo_175962" data-name="Grupo 175962" transform="translate(5935 10755)">
    <rect id="Rect치ngulo_35563" data-name="Rect치ngulo 35563" width="127" height="99" rx="10" transform="translate(-5935 -10755)" fill="#fcc02d"/>
    <g id="Enmascarar_grupo_224" data-name="Enmascarar grupo 224" transform="translate(-5908.749 -10742.56)" clip-path="url(#clip-path)">
      <g id="decreto" transform="translate(3.057 0)">
        <g id="Grupo_175631" data-name="Grupo 175631" transform="translate(1.113 1.112)">
          <path id="Trazado_124297" data-name="Trazado 124297" d="M66.061,34.2l-2.672-3.544,2.672-6.066v-11.2A6.943,6.943,0,0,0,58.9,6.447L21.2,10.518V38.571l3,4.013-3,4.839V71.781a6.943,6.943,0,0,0,6.944,6.943H73l-6.943-7.236Z" transform="translate(-13.791 -6.444)" fill="#ffd3a3"/>
          <path id="Trazado_124298" data-name="Trazado 124298" d="M95.914,90.569l-11.484.048v5.311a7.136,7.136,0,0,0,6.73,7.231,6.943,6.943,0,0,0,7.157-6.939V92.963a2.393,2.393,0,0,0-2.4-2.394Z" transform="translate(-32.161 -30.882)" fill="#ffbe74"/>
          <path id="Trazado_124299" data-name="Trazado 124299" d="M10.759,13.387v2.354a2.393,2.393,0,0,0,2.394,2.393H46.747a2.393,2.393,0,0,0,2.394-2.393V13.68a7.136,7.136,0,0,1,6.73-7.231H17.7a6.943,6.943,0,0,0-6.944,6.939Z" transform="translate(-10.759 -6.445)" fill="#fff5eb"/>
          <path id="Trazado_124300" data-name="Trazado 124300" d="M49.043,29.535l-4.169,6.285-5.041-3.8v8.339H58.253V32.024l-5.041,3.8Z" transform="translate(-19.205 -13.152)" fill="#fd7f23"/>
          <path id="Trazado_124301" data-name="Trazado 124301" d="M38.993,44.8H57.615a1.7,1.7,0,0,1,1.7,1.7v1.508a1.7,1.7,0,0,1-1.7,1.7H38.993a1.7,1.7,0,0,1-1.7-1.7V46.5a1.7,1.7,0,0,1,1.7-1.7Z" transform="translate(-18.466 -17.585)" fill="#fd7f23"/>
        </g>
        <path id="Trazado_124302" data-name="Trazado 124302" d="M76.542,65.582a3.48,3.48,0,0,0-2.474-1.018h-.017l-10.364.041V33.743a1.111,1.111,0,0,0-.225-.671L61.177,30.05l2.417-5.471a1.113,1.113,0,0,0,.095-.449V12.93a8.065,8.065,0,0,0-8.063-8.055H41.747a1.113,1.113,0,0,0,0,2.226h8.441a8.48,8.48,0,0,0-2.616,6.119v2.063a1.28,1.28,0,0,1-1.279,1.279h-33.6a1.279,1.279,0,0,1-1.279-1.279V12.93A5.836,5.836,0,0,1,17.25,7.1H35.958a1.113,1.113,0,1,0,0-2.226H17.25A8.065,8.065,0,0,0,9.19,12.93v2.354a3.509,3.509,0,0,0,3.505,3.505h3.9V38.113a1.113,1.113,0,0,0,.222.667l2.544,3.405-2.6,4.2a1.109,1.109,0,0,0-.167.586V54.6a1.113,1.113,0,1,0,2.226,0V47.288l2.835-4.572a1.111,1.111,0,0,0-.055-1.253l-2.777-3.72V18.786H46.295A3.509,3.509,0,0,0,49.8,15.281V13.22A6.024,6.024,0,0,1,55.417,7.1h.21A5.836,5.836,0,0,1,61.46,12.93V23.9l-2.583,5.852A1.112,1.112,0,0,0,59,30.867l2.453,3.244V71.028a8.48,8.48,0,0,0,2.616,6.119H24.654a5.836,5.836,0,0,1-5.833-5.826V69.361a1.113,1.113,0,0,0-2.226,0V71.32a8.065,8.065,0,0,0,8.06,8.053H69.513a8.059,8.059,0,0,0,8.06-8.048V68.069A3.481,3.481,0,0,0,76.542,65.582Zm-1.2,5.744a5.829,5.829,0,0,1-5.972,5.826h-.045a6.029,6.029,0,0,1-5.643-6.119v-4.2l10.374-.041a1.272,1.272,0,0,1,1.286,1.279ZM16.594,63.558V60.39a1.113,1.113,0,0,1,2.226,0v3.168a1.113,1.113,0,1,1-2.226,0ZM49.848,23.864a1.113,1.113,0,0,0-1.167.108l-4.1,3.085-3.516-5.3a1.114,1.114,0,0,0-1.856,0l-3.516,5.3-4.1-3.085a1.113,1.113,0,0,0-1.781.891V32.28a2.815,2.815,0,0,0-1.8,2.621V36.41a2.821,2.821,0,0,0,2.816,2.817H49.452a2.82,2.82,0,0,0,2.817-2.817V34.9a2.815,2.815,0,0,0-1.8-2.621V24.859a1.114,1.114,0,0,0-.616-1Zm-17.8,3.228L35.3,29.544a1.114,1.114,0,0,0,1.6-.273l3.244-4.887,3.237,4.887a1.113,1.113,0,0,0,.74.481,1.1,1.1,0,0,0,.857-.208l3.258-2.453v4.993H32.044Zm18,9.319a.592.592,0,0,1-.59.591H30.831a.592.592,0,0,1-.591-.591V34.9a.592.592,0,0,1,.591-.591H49.452a.592.592,0,0,1,.59.591ZM25.079,44.284H55.2a1.113,1.113,0,0,1,0,2.226H25.079a1.113,1.113,0,0,1,0-2.226Zm-1.113,7.248a1.113,1.113,0,0,1,1.113-1.113H55.2a1.113,1.113,0,0,1,0,2.226H25.079a1.113,1.113,0,0,1-1.113-1.113Zm0,6.133a1.113,1.113,0,0,1,1.113-1.113H55.2a1.113,1.113,0,0,1,0,2.226H25.079a1.113,1.113,0,0,1-1.113-1.113Zm0,6.134a1.113,1.113,0,0,1,1.113-1.113H55.2a1.113,1.113,0,0,1,0,2.226H25.079A1.113,1.113,0,0,1,23.966,63.8Z" transform="translate(-9.19 -4.876)" fill="#060606"/>
      </g>
    </g>
  </g>
</svg>
