<svg xmlns="http://www.w3.org/2000/svg" xmlns:xlink="http://www.w3.org/1999/xlink" width="505" height="143.843" viewBox="0 0 505 143.843">
  <defs>
    <clipPath id="clip-path">
      <rect id="Rectángulo_35649" data-name="Rectángulo 35649" width="55" height="55" transform="translate(300 5415)" fill="#fff" stroke="#707070" stroke-width="1"/>
    </clipPath>
    <clipPath id="clip-path-2">
      <rect id="Rectángulo_35650" data-name="Rectángulo 35650" width="55" height="55" transform="translate(510 5415)" fill="#fff" stroke="#707070" stroke-width="1"/>
    </clipPath>
    <clipPath id="clip-path-3">
      <rect id="Rectángulo_35651" data-name="Rectángulo 35651" width="55" height="55" transform="translate(720 5415)" fill="#fff" stroke="#707070" stroke-width="1"/>
    </clipPath>
  </defs>
  <g id="Grupo_176309" data-name="Grupo 176309" transform="translate(-285 -5387.158)">
    <text id="Grado_I" data-name="Grado I" transform="translate(327.5 5526.001)" fill="#12263f" font-size="18" font-family="Roboto-Black, Roboto" font-weight="800"><tspan x="-29.263" y="0">Grado I</tspan></text>
    <text id="Grado_II" data-name="Grado II" transform="translate(537.5 5526.001)" fill="#12263f" font-size="18" font-family="Roboto-Black, Roboto" font-weight="800"><tspan x="-31.979" y="0">Grado II</tspan></text>
    <text id="Defecto" transform="translate(747.5 5526.001)" fill="#12263f" font-size="18" font-family="Roboto-Black, Roboto" font-weight="800"><tspan x="-31.566" y="0">Defecto</tspan></text>
    <g id="Grupo_175804" data-name="Grupo 175804" transform="translate(0 11)">
      <circle id="Elipse_3963" data-name="Elipse 3963" cx="42.5" cy="42.5" r="42.5" transform="translate(285 5400)" fill="#fcc02d"/>
      <path id="Trazado_117242" data-name="Trazado 117242" d="M279.9,95.806s-7.887-5.607,4.574-19.841,10.568-32.35,9.938-35.585-2.918-10.891-1.025-9.6,1.57,11.312,2.358,6.783-4.11-19.615-9.189-24.359c-3.015-2.817-3.128-4.189-2.722-4.84a.667.667,0,0,1,1.179.006c1.307,1.9,5.538,7.889,5.7,6.123.233-2.533-3.873-7.544-5.923-9.485S281.268.887,283.161.025s39.645,20.442,20.085,69.686c0,0-.473,1.941.631,1.078s2.208-3.666,2.208-1.725S292.836,103.57,279.9,95.806" transform="translate(65.519 5394)" fill="#fd7f23"/>
      <g id="Enmascarar_grupo_241" data-name="Enmascarar grupo 241" clip-path="url(#clip-path)">
        <g id="cacao" transform="translate(300 5415)">
          <g id="Grupo_175798" data-name="Grupo 175798">
            <path id="Trazado_124582" data-name="Trazado 124582" d="M43.935,6.272C39.412,3.5,34.25,3.246,30.905,5.3a1.55,1.55,0,0,0-.732,1.192,11.375,11.375,0,0,0,3.31,8.348l.252.7,4.243,3.269,1-.066c3.949,1.753,8.354,1.977,11.277.447a1.973,1.973,0,0,0,1.061-1.729c.05-3.882-3-8.5-7.382-11.192Z" fill="#95d6a4"/>
            <path id="Trazado_124583" data-name="Trazado 124583" d="M40.461,14.867c-4.2-2.488-7.22-6.725-7.53-10.467a8.693,8.693,0,0,0-2.026.9,1.55,1.55,0,0,0-.732,1.192,11.375,11.375,0,0,0,3.31,8.348l.252.7,4.243,3.269,1-.066c3.949,1.753,8.354,1.977,11.277.447a1.973,1.973,0,0,0,1.061-1.729,7.742,7.742,0,0,0-.037-.835,13.967,13.967,0,0,1-10.819-1.762Z" fill="#78c2a4"/>
            <path id="Trazado_124584" data-name="Trazado 124584" d="M43.044,53.322l.44.19a3.8,3.8,0,0,0,.5-.433c4.951-5.133,9.768-14.907,3.67-22.158-3.814-4.535-7.283-10.744-10.428-14.413a4.511,4.511,0,0,0-5.976-.966l-.118.637-.416.112Z" fill="#f4c0a6"/>
            <path id="Trazado_124585" data-name="Trazado 124585" d="M28.421,16.417a6.362,6.362,0,0,0-1.034.28l-.167.37L28.929,19.3V40.411L27.22,44.868l.167,2.274c3.278,3.973,8.765,6.273,13.2,7.046a3.8,3.8,0,0,0,.658.055l.49-.344.134-.059Z" fill="#e9ae8d"/>
            <path id="Trazado_124586" data-name="Trazado 124586" d="M41.221,33.1C38.527,28,35.71,21.322,33.5,17.185a8.409,8.409,0,0,0-.893-1.381,1.091,1.091,0,0,0-1.352-.265l-.007,0a7.6,7.6,0,0,1-2.525.824h-.008a1.1,1.1,0,0,0-.8.554l-.065.372,1.6,2.162V29.689l.72,1.694c.325,1.732.625,3.441.859,5.044A27.934,27.934,0,0,0,41.25,54.242a3.807,3.807,0,0,0,2.235-.73A27.935,27.935,0,0,0,41.221,33.1Z" fill="#e9ae8d"/>
            <path id="Trazado_124587" data-name="Trazado 124587" d="M30.173,31.382c.325,1.732.625,3.441.859,5.044A27.934,27.934,0,0,0,41.25,54.242a3.8,3.8,0,0,0,2.108-.645c-8.34-9.022-11.91-31.562-12.752-37.75a7.594,7.594,0,0,1-1.882.519h-.008a1.1,1.1,0,0,0-.8.554l-.065.372,1.6,2.162V29.689Z" fill="#e29a74"/>
            <path id="Trazado_124588" data-name="Trazado 124588" d="M30.306,20.673A4.459,4.459,0,0,0,26.265,16.4l-.007.015-.874.244-.7-.139L13.235,53.775l.011,0,.28.464a3.792,3.792,0,0,0,.658-.055c7.026-1.223,16.682-6.272,16.038-15.724-.4-5.912.46-12.972.086-17.79Z" fill="#f4c0a6"/>
            <path id="Trazado_124589" data-name="Trazado 124589" d="M12.321,53.5,23.765,16.19l-.239-.647a6.058,6.058,0,0,0-1.968-.673l-1.259.182-4.324,3.133-.313.743c-2.631,3.62-5.474,8.347-8.54,11.993-6.1,7.251-1.281,17.025,3.67,22.158a3.8,3.8,0,0,0,.5.433l.4-.2Z" fill="#e9ae8d"/>
            <path id="Trazado_124590" data-name="Trazado 124590" d="M23.743,36.427c.834-5.708,2.5-12.761,3.158-17.4a8.417,8.417,0,0,0,.094-1.642,1.091,1.091,0,0,0-.935-1.012h-.008a7.594,7.594,0,0,1-2.525-.824l-.007,0a1.091,1.091,0,0,0-1.352.265,8.413,8.413,0,0,0-.893,1.381C19.064,21.322,16.248,28,13.554,33.1A27.935,27.935,0,0,0,11.29,53.513a3.807,3.807,0,0,0,2.235.73A27.935,27.935,0,0,0,23.743,36.427Z" fill="#e9ae8d"/>
            <path id="Trazado_124591" data-name="Trazado 124591" d="M17.208,34.284c2.474-5.394,5.2-12.382,7.22-16.759a13.048,13.048,0,0,1,.707-1.346,7.6,7.6,0,0,1-1.609-.636l-.007,0a1.091,1.091,0,0,0-1.352.265,8.414,8.414,0,0,0-.893,1.381C19.064,21.322,16.248,28,13.554,33.1A27.935,27.935,0,0,0,11.29,53.513a3.8,3.8,0,0,0,2.114.725,41.626,41.626,0,0,1,3.8-19.953Z" fill="#e29a74"/>
            <path id="Trazado_124592" data-name="Trazado 124592" d="M24.9,6.492A1.551,1.551,0,0,0,24.164,5.3c-3.345-2.054-8.507-1.805-13.029.972C6.749,8.965,3.7,13.582,3.752,17.464a1.973,1.973,0,0,0,1.061,1.729c3.44,1.8,8.935,1.173,13.321-1.52C22.657,14.9,25.214,10.4,24.9,6.492Z" fill="#95d6a4"/>
            <path id="Trazado_124593" data-name="Trazado 124593" d="M7.834,19.636c-.05-3.882,3-8.5,7.382-11.192a14.452,14.452,0,0,1,9.64-2.184,1.55,1.55,0,0,0-.693-.96c-3.345-2.054-8.507-1.805-13.029.972C6.749,8.965,3.7,13.582,3.752,17.464a1.973,1.973,0,0,0,1.062,1.729,9.143,9.143,0,0,0,3.086.922A1.978,1.978,0,0,1,7.834,19.636Z" fill="#78c2a4"/>
          </g>
          <g id="Grupo_175799" data-name="Grupo 175799">
            <path id="Trazado_124594" data-name="Trazado 124594" d="M50.595,19.857a2.783,2.783,0,0,0,1.493-2.432c.047-3.621-2.376-7.855-6.171-10.787a.806.806,0,1,0-.985,1.275c3.409,2.633,5.585,6.358,5.545,9.491a1.173,1.173,0,0,1-.63,1.025c-2.608,1.365-6.663,1.211-10.382-.385l-.009-.012c-1.613-2.184-2.949-4.063-5.661-4.063a10.7,10.7,0,0,1-2.876-6.923l4.7,2.889.464,3.682a.806.806,0,1,0,1.6-.2l-.3-2.4L39.8,12.5l.464,3.682a.806.806,0,1,0,1.6-.2l-.3-2.4L46.3,16.492a.806.806,0,1,0,.843-1.373l-1.948-1.2,1.235-.443a.806.806,0,1,0-.544-1.517l-2.451.879L41.023,11.36,43,10.652a.806.806,0,0,0-.544-1.517L39.263,10.28,36.85,8.8l1.977-.709a.806.806,0,1,0-.544-1.517L35.09,7.717,31.762,5.674c2.727-1.412,6.535-1.287,10.1.365a.806.806,0,0,0,.678-1.462C38.283,2.6,33.651,2.6,30.449,4.564a2.345,2.345,0,0,0-.23.161,13.072,13.072,0,0,0-2.037-1.2A15.1,15.1,0,0,0,27.744.585a.806.806,0,0,0-1.55.439,14.09,14.09,0,0,1,.373,2.606l-1.786,1.1A10.682,10.682,0,0,0,18,3.121c-8.189.549-15.169,8.1-15.09,14.3a2.782,2.782,0,0,0,1.493,2.432c2.7,1.411,6.2,1.328,9.155.56-2.246,3.272-4.593,6.968-7.09,9.936C.6,37.338,4.049,47.236,10.178,53.59a4.615,4.615,0,0,0,4.109,1.342c4.686-.816,9.788-3.1,13.067-6.62,3.552,3.808,9,5.912,13.066,6.62a4.618,4.618,0,0,0,4.109-1.341c6.084-6.309,9.617-16.208,3.706-23.236-.445-.529-.9-1.092-1.376-1.723a.806.806,0,0,0-1.281.978c.5.651.963,1.234,1.424,1.783,4.8,5.7,2.508,13.524-2.083,19.307A29.5,29.5,0,0,0,41.9,32.675c-1.378-2.609-2.783-5.622-4.142-8.536A91.518,91.518,0,0,0,33.465,15.6c.018,0,.035,0,.053,0,2.252-.192,3.388,1.724,4.781,3.584.975,1.332,1.985,2.831,3.032,4.383.655.972,1.333,1.978,2.019,2.967a.806.806,0,1,0,1.324-.919c-.68-.98-1.354-1.981-2.007-2.949-.537-.8-1.064-1.579-1.584-2.334a16.408,16.408,0,0,0,4.467.651,10.9,10.9,0,0,0,5.044-1.12ZM28.221,5.39l1.155.709a2.329,2.329,0,0,0-.04.278,11.684,11.684,0,0,0,2.639,7.91q-.287.1-.577.223a18.105,18.105,0,0,1-3.313-7.09C28.165,6.7,28.207,6.019,28.221,5.39Zm-.766,5.433A16.788,16.788,0,0,0,29.877,15.2c-1.112.39-1.416.243-2.521.594a7.426,7.426,0,0,0-1.209-.274l-.008,0h-.009c-.126-.018-.251-.04-.375-.065a25.718,25.718,0,0,0,1.7-4.632ZM25.624,6.1l.972-.6a23.232,23.232,0,0,1-2.388,9.448c-.054-.025-.277-.135-.337-.167l-.008,0-.006,0a7.623,7.623,0,0,0-.9-.406,14.636,14.636,0,0,0,1.026-1.5A10.716,10.716,0,0,0,25.624,6.1ZM5.153,18.43a1.173,1.173,0,0,1-.63-1.025,10.3,10.3,0,0,1,1.895-5.588c4.176-6.33,12.1-8.585,16.82-6.143L19.91,7.717,16.717,6.572a.806.806,0,1,0-.544,1.517L18.15,8.8l-2.413,1.482L12.544,9.135A.806.806,0,1,0,12,10.652l1.976.709-2.413,1.482-2.451-.879a.806.806,0,1,0-.544,1.517l1.235.443-1.948,1.2A.806.806,0,1,0,8.7,16.492l4.744-2.913-.3,2.4a.806.806,0,1,0,1.6.2L15.2,12.5l2.413-1.482-.3,2.4a.806.806,0,1,0,1.6.2l.464-3.682,4.7-2.888c.037,4.757-4.111,9.116-8.615,11.024-3.145,1.33-7.339,1.914-10.312.358ZM9.787,50.7C5.174,44.886,2.924,37.075,7.7,31.391c3.064-3.643,5.839-8.245,8.444-11.856a17.839,17.839,0,0,0,4.272-2.574c-2.21,4.181-4.974,10.716-7.614,15.714A29.5,29.5,0,0,0,9.787,50.7Zm3.453,2.679a2.973,2.973,0,0,1-1.3-.425c-1.6-5.267-1.134-13.041,2.292-19.525,3.212-6.08,7.067-15.392,8.523-17.161a.289.289,0,0,1,.357-.063c2.173,1.163,3.014.653,3.044,1.173.13,2.254-2.259,12.141-3.245,18.884C21.854,43.488,17.66,50.051,13.24,53.377Zm3.068-.549a29.5,29.5,0,0,0,8.2-16.333c.941-6.437,3.243-16.072,3.269-18.761,1.6.943,1.706,2.432,1.766,4.3.151,4.7-.529,11-.158,16.432C29.89,45.909,23.406,50.873,16.308,52.827ZM28.4,47.068a12.654,12.654,0,0,0,2.6-6.9,29.526,29.526,0,0,0,7.394,12.649A21.509,21.509,0,0,1,28.4,47.068ZM36.3,24.82c1.367,2.932,2.781,5.963,4.178,8.608,3.418,6.472,3.894,14.244,2.292,19.525a2.971,2.971,0,0,1-1.3.425c-4.382-3.3-8.607-9.837-9.671-17.116-.208-1.423-.478-3.011-.848-4.99.321-10.056.633-12.331-1.474-14.278a8.423,8.423,0,0,0,2.11-.783l.01-.005h0l0,0,.005,0a.286.286,0,0,1,.348.067C32.859,17.369,34.821,21.655,36.3,24.82Z"/>
          </g>
        </g>
      </g>
    </g>
    <g id="Grupo_175803" data-name="Grupo 175803" transform="translate(0 11)">
      <circle id="Elipse_3964" data-name="Elipse 3964" cx="42.5" cy="42.5" r="42.5" transform="translate(495 5400)" fill="#fcc02d"/>
      <path id="Trazado_124619" data-name="Trazado 124619" d="M279.9,95.806s-7.887-5.607,4.574-19.841,10.568-32.35,9.938-35.585-2.918-10.891-1.025-9.6,1.57,11.312,2.358,6.783-4.11-19.615-9.189-24.359c-3.015-2.817-3.128-4.189-2.722-4.84a.667.667,0,0,1,1.179.006c1.307,1.9,5.538,7.889,5.7,6.123.233-2.533-3.873-7.544-5.923-9.485S281.268.887,283.161.025s39.645,20.442,20.085,69.686c0,0-.473,1.941.631,1.078s2.208-3.666,2.208-1.725S292.836,103.57,279.9,95.806" transform="translate(708.22 5240.231) rotate(120)" fill="#fd7f23"/>
      <g id="Enmascarar_grupo_242" data-name="Enmascarar grupo 242" clip-path="url(#clip-path-2)">
        <g id="cacao_1_" data-name="cacao (1)" transform="translate(509.113 5414.113)">
          <path id="Trazado_124595" data-name="Trazado 124595" d="M35.338,7.489A6.519,6.519,0,0,0,33.111,7.1,34.567,34.567,0,0,0,22.177,8.871l1.12.186a8.368,8.368,0,0,1,6.109,4.512,8.373,8.373,0,0,0,2.039,2.611l2.287,1.96,7.963,4.037L40.806,8.871" fill="#2b6724"/>
          <path id="Trazado_124596" data-name="Trazado 124596" d="M23.3,9.057a8.368,8.368,0,0,1,6.109,4.512,8.373,8.373,0,0,0,2.039,2.611l2.287,1.96,7.963,4.037-.411-6.164A36.808,36.808,0,0,0,22.177,8.871Z" fill="#3d8738"/>
          <path id="Trazado_124597" data-name="Trazado 124597" d="M38.928,18.814l-1.919-4.8a13.312,13.312,0,0,1-.852-3.307,13.368,13.368,0,0,0-4.914-8.78l-.2-.156A17.214,17.214,0,0,1,44.189,7.869l1.9,2.246a11.413,11.413,0,0,1,1.1,13.2" fill="#4fa04b"/>
          <path id="Trazado_124598" data-name="Trazado 124598" d="M48.79,17.486a11.406,11.406,0,0,0-2.7-7.371l-1.9-2.247A17.214,17.214,0,0,0,31.048,1.774l4.007,2.938a22.755,22.755,0,0,1,9.107,15.4l.14,1.633,2.886,1.573a11.4,11.4,0,0,0,1.6-5.829Z" fill="#6bb566"/>
          <path id="Trazado_124599" data-name="Trazado 124599" d="M47.655,24.571l5.571-.619V27.5H47.779" fill="#522006"/>
          <path id="Trazado_124600" data-name="Trazado 124600" d="M4.774,23.617l6.27-1.71A23.643,23.643,0,0,0,15.4,20.242a23.679,23.679,0,0,1,10.589-2.5,75.192,75.192,0,0,1,8.311.46q3.84.427,7.643,1.118A7.254,7.254,0,0,1,47.9,26.457a4.439,4.439,0,0,1-3.645,4.367l-6.237,1.134A108.564,108.564,0,0,1,18.6,33.71,18.531,18.531,0,0,1,7.478,30a15.726,15.726,0,0,1-3.65-3.859,1.664,1.664,0,0,1,.947-2.528Z" fill="#672a0d"/>
          <path id="Trazado_124601" data-name="Trazado 124601" d="M41.947,19.32q-3.8-.691-7.643-1.118a75.192,75.192,0,0,0-8.311-.46,23.679,23.679,0,0,0-10.589,2.5,23.643,23.643,0,0,1-4.359,1.665L5.564,23.4c.015.026.021.056.038.082a15.726,15.726,0,0,0,3.65,3.859A18.528,18.528,0,0,0,20.37,31.048,108.652,108.652,0,0,0,39.8,29.3l6.237-1.134a4.4,4.4,0,0,0,1.756-.753,4.4,4.4,0,0,0,.115-.953,7.254,7.254,0,0,0-5.956-7.138Z" fill="#893b1b"/>
          <path id="Trazado_124602" data-name="Trazado 124602" d="M3.548,55l3.458-8.778a32.355,32.355,0,0,1,30.1-20.5,10.631,10.631,0,0,1,8.651,4.452,6.739,6.739,0,0,1-.124,8A42.694,42.694,0,0,1,11.676,55Z" fill="#893b1b"/>
          <path id="Trazado_124603" data-name="Trazado 124603" d="M46.071,30.694c-.1-.173-.193-.351-.31-.515a10.631,10.631,0,0,0-8.651-4.452,32.356,32.356,0,0,0-30.1,20.5L4.6,52.339h6.192A42.7,42.7,0,0,0,44.75,35.519a6.741,6.741,0,0,0,1.379-4.085,6.65,6.65,0,0,0-.058-.741Z" fill="#a44b2f"/>
          <path id="Trazado_124604" data-name="Trazado 124604" d="M11.532,48.79a11.4,11.4,0,0,1,3-7.705,38.608,38.608,0,0,1,16.252-10.54L32.3,30.04a14.907,14.907,0,0,1,4.718-.766A5.8,5.8,0,0,1,41.661,31.6a4.6,4.6,0,0,1-.561,6.141l-2.746,2.535a43.738,43.738,0,0,1-16.807,9.667,14.1,14.1,0,0,1-4.154.625,10.566,10.566,0,0,1-5.86-1.774Z" fill="#c99728"/>
          <g id="Grupo_175800" data-name="Grupo 175800">
            <path id="Trazado_124605" data-name="Trazado 124605" d="M17.742,23.952A65.646,65.646,0,0,0,3.76,25.461l-.171.037a1.645,1.645,0,0,0,.239.647c.223.334.462.657.71.973a63.9,63.9,0,0,1,13.2-1.392Z" fill="#522006"/>
            <path id="Trazado_124606" data-name="Trazado 124606" d="M20.684,28.342l-.562-1.683A47.441,47.441,0,0,1,9.412,28.9l-2.023.185-.971.048q.511.458,1.061.873c.355.266.722.514,1.093.753l1-.091a49.292,49.292,0,0,0,11.111-2.324Z" fill="#522006"/>
            <path id="Trazado_124607" data-name="Trazado 124607" d="M15.918,21.585c4.718.393,9.509.593,14.243.593V20.4c-4.612,0-9.279-.193-13.877-.57-.3.133-.591.264-.881.409A23.65,23.65,0,0,1,12.99,21.28l1.61.2Z" fill="#522006"/>
          </g>
          <path id="Trazado_124608" data-name="Trazado 124608" d="M17.161,45.255A3.553,3.553,0,0,1,20.4,48.79v1.445c.384-.084.766-.18,1.143-.3.213-.066.42-.145.631-.214V48.79a5.321,5.321,0,0,0-2.33-4.4l.243-.243a2.406,2.406,0,0,1,3.288,0,4.958,4.958,0,0,1,1.46,3.527v1.088c.6-.237,1.19-.483,1.774-.745v-.342a6.717,6.717,0,0,0-1.98-4.781,4.082,4.082,0,0,0-1.123-.776l1.024-.82a2.248,2.248,0,0,1,3.587,1.21l1.007,4.027.051.221c.537-.285,1.071-.573,1.6-.88l-.931-3.8a4,4,0,0,0-2.835-2.89c.028-.051.055-.1.081-.157h1.919a2.929,2.929,0,0,1,2.929,2.929v3.2q.9-.567,1.774-1.178V41.962a4.709,4.709,0,0,0-2.495-4.153,1.987,1.987,0,0,1,2.689.011A8.4,8.4,0,0,1,36.1,41.635l.082.5c.516-.417,1.018-.851,1.516-1.292a10.228,10.228,0,0,0-2.3-4.012,1.683,1.683,0,0,1,2.669.47,9.17,9.17,0,0,1,.719,1.977l.115.487,1.473-1.36a10.939,10.939,0,0,0-.719-1.9,3.45,3.45,0,0,0-1.824-1.667,1.98,1.98,0,0,1,3.194-.552l.9.9.442.478a4.164,4.164,0,0,0,.046-2.5l-.136-.136a3.787,3.787,0,0,0-2.66-1.1c-.051,0-.1.012-.151.013a8.373,8.373,0,0,0-1.405-2.571,5.813,5.813,0,0,0-1.041-.1A14.915,14.915,0,0,0,35.2,29.4l1,.573a6.461,6.461,0,0,1,1.553,2.457,3.788,3.788,0,0,0-1.112.978,7.663,7.663,0,0,0-3.285-3.673c-.358.09-.713.191-1.065.308l-1.427.475.88.406.192.082a5.869,5.869,0,0,1,3.334,3.839,3.463,3.463,0,0,0-1.178.769l-.148.148a3.677,3.677,0,0,0-1.362-.272,7.042,7.042,0,0,0-3.3-4.309l-.09-.051q-1.076.411-2.122.886l.611.294.72.412a5.26,5.26,0,0,1,2.447,3.175,3.686,3.686,0,0,0-1.385,1.233l-.1.153c-.122-.009-.244-.022-.369-.022H27.5A4.061,4.061,0,0,0,25.537,33.8l-.936-.562c-.621.337-1.23.694-1.832,1.064l.523.22,1.332.8a2.271,2.271,0,0,1,.779,3.114l-.437.728a4.032,4.032,0,0,0-1.541.747l-.651.521A8.29,8.29,0,0,0,20,36.159c-.5.368-.977.759-1.456,1.151l.227.133.083.066a6.509,6.509,0,0,1,2.367,4.169l-.1.076a4.111,4.111,0,0,0-2.289,1.14l-.57.57a4.932,4.932,0,0,0-.892-5.152c-.442.392-.882.786-1.307,1.2a3.2,3.2,0,0,1,.451,3.536l-.372.744L11.6,47.577a11.266,11.266,0,0,0-.071,1.214c.262.175.532.333.807.483Z" fill="#ad7e1b"/>
          <path id="Trazado_124609" data-name="Trazado 124609" d="M37.018,28.387a15.807,15.807,0,0,0-5,.811L30.5,29.7A39.587,39.587,0,0,0,13.876,40.485a12.258,12.258,0,0,0-3.231,8.305.888.888,0,0,0,.395.738,11.417,11.417,0,0,0,6.352,1.923,15,15,0,0,0,4.416-.664,44.911,44.911,0,0,0,17.148-9.863L41.7,38.389a5.489,5.489,0,0,0,.668-7.326,6.724,6.724,0,0,0-5.353-2.676Zm3.051,9.1c-.127-.329-.26-.656-.417-.97a3.45,3.45,0,0,0-1.824-1.667,1.981,1.981,0,0,1,3.194-.554l.615.615a3.715,3.715,0,0,1-1.138,2.18Zm-2.677,2.453a10.185,10.185,0,0,0-2-3.1,1.686,1.686,0,0,1,2.671.471,9.158,9.158,0,0,1,.574,1.5l-.887.819c-.116.107-.241.207-.36.314ZM19.847,44.391l.243-.243a2.406,2.406,0,0,1,3.288,0,4.958,4.958,0,0,1,1.46,3.527v.13q-1.315.538-2.661.985a5.321,5.321,0,0,0-2.33-4.4Zm-.585-6.517a6.507,6.507,0,0,1,1.957,3.8l-.1.076a4.111,4.111,0,0,0-2.289,1.14l-.57.57a4.935,4.935,0,0,0-.36-4.436q.667-.593,1.358-1.155Zm9.152-5.154a5.26,5.26,0,0,1,2.447,3.175,3.686,3.686,0,0,0-1.385,1.233l-.1.153c-.122-.01-.245-.023-.37-.023H27.5A4.061,4.061,0,0,0,25.537,33.8l-.042-.026q1.276-.669,2.6-1.242Zm-3.791,2.605a2.271,2.271,0,0,1,.779,3.114l-.437.728a4.032,4.032,0,0,0-1.541.747l-.651.521a8.3,8.3,0,0,0-2.1-3.662c.978-.717,1.994-1.376,3.036-2Zm.009,7.57a4.082,4.082,0,0,0-1.123-.776l1.024-.82A2.249,2.249,0,0,1,28.12,42.51l.838,3.351q-1.171.629-2.376,1.187a6.71,6.71,0,0,0-1.95-4.153Zm5.209-.814a4,4,0,0,0-2.835-2.89c.028-.051.055-.1.081-.157h1.919a2.929,2.929,0,0,1,2.929,2.929v2.156c-.452.291-.912.568-1.374.842Zm3.077-2.728a4.7,4.7,0,0,0-1.7-1.544,1.987,1.987,0,0,1,2.689.011,8.409,8.409,0,0,1,2.042,3.376c-.724.6-1.473,1.16-2.236,1.708v-.941a4.684,4.684,0,0,0-.79-2.609Zm4.842-6.925a3.791,3.791,0,0,0-1.111.978,7.666,7.666,0,0,0-2.265-2.985,13.9,13.9,0,0,1,2.01-.234A6.474,6.474,0,0,1,37.761,32.428Zm3.19-.3c.019.026.032.054.051.08a3.772,3.772,0,0,0-1.387-.271c-.051,0-.1.012-.151.013a8.2,8.2,0,0,0-.618-1.425,4.924,4.924,0,0,1,2.105,1.6Zm-9.888-.74.988-.329a5.864,5.864,0,0,1,3.227,3.784,3.463,3.463,0,0,0-1.178.769l-.148.148a3.677,3.677,0,0,0-1.362-.272,7.053,7.053,0,0,0-2.479-3.75C30.43,31.622,30.742,31.494,31.063,31.387Zm-15.88,10.3c.442-.482.9-.944,1.369-1.4a3.141,3.141,0,0,1-.036,2.764l-.372.744-3.512,2.927a10.477,10.477,0,0,1,2.551-5.034Zm-2.092,6.961,4.069-3.391A3.554,3.554,0,0,1,20.4,48.79v.538a13.218,13.218,0,0,1-3.012.35A9.626,9.626,0,0,1,13.092,48.646Z"/>
          <path id="Trazado_124610" data-name="Trazado 124610" d="M6.947,30.714a19.454,19.454,0,0,0,7.16,3.347A33.312,33.312,0,0,0,6.181,45.9L2.723,54.676a.885.885,0,0,0,.825,1.211h8.128A43.828,43.828,0,0,0,46.342,38.718,7.665,7.665,0,0,0,47.9,34.1a7.571,7.571,0,0,0-.938-3.634,5.268,5.268,0,0,0,1.464-2.074h4.8a.887.887,0,0,0,.887-.887V23.952a.887.887,0,0,0-.985-.882l-4.852.539c-.031-.083-.068-.163-.1-.245A12.278,12.278,0,0,0,46.768,9.542L44.867,7.3A18.068,18.068,0,0,0,31.048.887a.888.888,0,0,0-.554,1.58l.2.156A12.454,12.454,0,0,1,33.768,6.24q-.327-.031-.658-.03A35.4,35.4,0,0,0,21.9,8.029a.887.887,0,0,0,.135,1.717l1.12.186a7.5,7.5,0,0,1,5.461,4.033,9.2,9.2,0,0,0,2.255,2.888l.208.179c-1.694-.114-3.394-.177-5.083-.177a24.7,24.7,0,0,0-10.986,2.593,22.822,22.822,0,0,1-4.2,1.6l-6.271,1.71a2.552,2.552,0,0,0-1.45,3.876,16.592,16.592,0,0,0,3.858,4.077Zm37.984,6.929a42.043,42.043,0,0,1-33.255,16.47H4.852l2.981-7.566A31.29,31.29,0,0,1,37.11,26.613a9.764,9.764,0,0,1,7.929,4.081,5.851,5.851,0,0,1-.108,6.95Zm7.408-12.7v1.67H48.781c0-.052.01-.1.01-.156a8.2,8.2,0,0,0-.083-1.111Zm-8.827-16.5,1.9,2.246A10.493,10.493,0,0,1,47.1,21.5a8.136,8.136,0,0,0-2.125-1.935A23.751,23.751,0,0,0,35.581,4L34.2,2.982A16.288,16.288,0,0,1,43.512,8.443Zm-3.94,9.59-1.738-4.344a12.44,12.44,0,0,1-.8-3.087A14.3,14.3,0,0,0,35.9,6.529a21.994,21.994,0,0,1,7.116,12.144,8.251,8.251,0,0,0-.909-.226C41.268,18.295,40.419,18.166,39.573,18.032Zm-4.915-9.81a12.6,12.6,0,0,1,.62,2.6c.026.211.063.42.1.63a37.353,37.353,0,0,0-8.662-2.841,33.7,33.7,0,0,1,6.4-.625A5.611,5.611,0,0,1,34.658,8.222Zm-2.636,7.285A7.444,7.444,0,0,1,30.2,13.172a9.2,9.2,0,0,0-1.669-2.323,35.754,35.754,0,0,1,7.43,2.878c.072.208.144.416.225.62l1.351,3.377c-1.046-.146-2.093-.287-3.136-.4l-.3-.029ZM5.008,24.473l6.27-1.71a24.566,24.566,0,0,0,3.546-1.269l1.095.091c4.718.393,9.509.593,14.243.593V20.4c-3.947,0-7.933-.148-11.883-.425a22.9,22.9,0,0,1,7.714-1.349,74.546,74.546,0,0,1,8.214.455c2.528.28,5.08.654,7.583,1.109a6.365,6.365,0,0,1,5.227,6.264,3.522,3.522,0,0,1-1.073,2.538,11.531,11.531,0,0,0-8.833-4.156,33.094,33.094,0,0,0-21.355,7.745,17.709,17.709,0,0,1-5.7-1.976,49.31,49.31,0,0,0,10.633-2.267l-.562-1.683A47.441,47.441,0,0,1,9.413,28.9l-1.7.153a14.807,14.807,0,0,1-2.183-2.125,63.931,63.931,0,0,1,12.21-1.2V23.952a65.671,65.671,0,0,0-13.29,1.377.717.717,0,0,1-.016-.106.779.779,0,0,1,.572-.749Z"/>
        </g>
      </g>
    </g>
    <g id="Grupo_175802" data-name="Grupo 175802" transform="translate(0 11)">
      <circle id="Elipse_3965" data-name="Elipse 3965" cx="42.5" cy="42.5" r="42.5" transform="translate(705 5400)" fill="#fcc02d"/>
      <path id="Trazado_124620" data-name="Trazado 124620" d="M279.9,95.806s-7.887-5.607,4.574-19.841,10.568-32.35,9.938-35.585-2.918-10.891-1.025-9.6,1.57,11.312,2.358,6.783-4.11-19.615-9.189-24.359c-3.015-2.817-3.128-4.189-2.722-4.84a.667.667,0,0,1,1.179.006c1.307,1.9,5.538,7.889,5.7,6.123.233-2.533-3.873-7.544-5.923-9.485S281.268.887,283.161.025s39.645,20.442,20.085,69.686c0,0-.473,1.941.631,1.078s2.208-3.666,2.208-1.725S292.836,103.57,279.9,95.806" transform="matrix(-0.914, -0.407, 0.407, -0.914, 967.151, 5590.393)" fill="#fd7f23"/>
      <g id="Enmascarar_grupo_243" data-name="Enmascarar grupo 243" clip-path="url(#clip-path-3)">
        <g id="cacao_2_" data-name="cacao (2)" transform="translate(718.164 5413.167)">
          <path id="Trazado_124611" data-name="Trazado 124611" d="M53.166,33c0,15.621-7.333,18.333-7.333,18.333a8.158,8.158,0,0,1-14.667,0C23.871,46.558,23.833,33,23.833,33c0-8.67,7.333-15.583,7.333-15.583a8.158,8.158,0,0,1,14.667,0C53.625,25.724,53.166,33,53.166,33Z" fill="#ad6643"/>
          <path id="Trazado_124612" data-name="Trazado 124612" d="M49.5,34.833c0,9.113-3.912,15.583-11,15.583s-11-6.471-11-15.583,3.912-14.667,11-14.667S49.5,25.72,49.5,34.833Z" fill="#8a5237"/>
          <ellipse id="Elipse_3966" data-name="Elipse 3966" cx="4.583" cy="1.833" rx="4.583" ry="1.833" transform="translate(37.583 22.916)" fill="#5e3725"/>
          <ellipse id="Elipse_3967" data-name="Elipse 3967" cx="4.583" cy="1.833" rx="4.583" ry="1.833" transform="translate(29.333 22.916)" fill="#5e3725"/>
          <ellipse id="Elipse_3968" data-name="Elipse 3968" cx="4.583" cy="1.833" rx="4.583" ry="1.833" transform="translate(33.916 25.666)" fill="#7a4830"/>
          <ellipse id="Elipse_3969" data-name="Elipse 3969" cx="4.583" cy="1.833" rx="4.583" ry="1.833" transform="translate(38.5 28.416)" fill="#5e3725"/>
          <ellipse id="Elipse_3970" data-name="Elipse 3970" cx="4.583" cy="1.833" rx="4.583" ry="1.833" transform="translate(29.333 28.416)" fill="#5e3725"/>
          <ellipse id="Elipse_3971" data-name="Elipse 3971" cx="4.583" cy="1.833" rx="4.583" ry="1.833" transform="translate(33.916 31.166)" fill="#7a4830"/>
          <ellipse id="Elipse_3972" data-name="Elipse 3972" cx="4.583" cy="1.833" rx="4.583" ry="1.833" transform="translate(38.5 33.916)" fill="#5e3725"/>
          <ellipse id="Elipse_3973" data-name="Elipse 3973" cx="4.583" cy="1.833" rx="4.583" ry="1.833" transform="translate(29.333 33.916)" fill="#5e3725"/>
          <ellipse id="Elipse_3974" data-name="Elipse 3974" cx="4.583" cy="1.833" rx="4.583" ry="1.833" transform="translate(33.916 36.666)" fill="#7a4830"/>
          <ellipse id="Elipse_3975" data-name="Elipse 3975" cx="4.583" cy="1.833" rx="4.583" ry="1.833" transform="translate(38.5 39.416)" fill="#5e3725"/>
          <ellipse id="Elipse_3976" data-name="Elipse 3976" cx="4.583" cy="1.833" rx="4.583" ry="1.833" transform="translate(29.333 39.416)" fill="#5e3725"/>
          <ellipse id="Elipse_3977" data-name="Elipse 3977" cx="4.583" cy="1.833" rx="4.583" ry="1.833" transform="translate(33.916 42.166)" fill="#7a4830"/>
          <ellipse id="Elipse_3978" data-name="Elipse 3978" cx="4.583" cy="1.833" rx="4.583" ry="1.833" transform="translate(29.333 44)" fill="#5e3725"/>
          <path id="Trazado_124613" data-name="Trazado 124613" d="M34.833,33c0,15.621-7.333,18.333-7.333,18.333a8.158,8.158,0,0,1-14.667,0C5.538,46.558,5.5,33,5.5,33c0-8.67,7.333-15.583,7.333-15.583a8.158,8.158,0,0,1,14.667,0C35.291,25.724,34.833,33,34.833,33Z" fill="#95573a"/>
          <g id="Grupo_175801" data-name="Grupo 175801">
            <ellipse id="Elipse_3979" data-name="Elipse 3979" cx="4.583" cy="1.833" rx="4.583" ry="1.833" transform="translate(25.666 51.333)" fill="#5e3725"/>
            <ellipse id="Elipse_3980" data-name="Elipse 3980" cx="4.583" cy="1.833" rx="4.583" ry="1.833" transform="translate(34.833 52.25)" fill="#5e3725"/>
            <ellipse id="Elipse_3981" data-name="Elipse 3981" cx="4.583" cy="1.833" rx="4.583" ry="1.833" transform="translate(44 52.25)" fill="#5e3725"/>
          </g>
          <ellipse id="Elipse_3982" data-name="Elipse 3982" cx="4.583" cy="1.833" rx="4.583" ry="1.833" transform="translate(33.916 47.666)" fill="#7a4830"/>
          <path id="Trazado_124614" data-name="Trazado 124614" d="M49.5,51.333c-.5.879-2.385.339-4.583-.917s-3.252-2.788-2.75-3.667,2.385-.339,4.583.917S50,50.454,49.5,51.333Z" fill="#5e3725"/>
          <ellipse id="Elipse_3983" data-name="Elipse 3983" cx="4.583" cy="1.833" rx="4.583" ry="1.833" transform="translate(33.916 20.167)" fill="#7a4830"/>
          <path id="Trazado_124615" data-name="Trazado 124615" d="M46.6,16.9a9.082,9.082,0,0,0-16.2-.021c-.194.192-.589.6-1.1,1.182q-.492-.576-1.035-1.16a8.943,8.943,0,0,0-7.187-4.94v-2.8A33.744,33.744,0,0,0,39.046,3.486a.917.917,0,0,0-1.092-1.473A32.548,32.548,0,0,1,21.083,7.319V4.583a.917.917,0,0,0-1.833,0V7.322A21.1,21.1,0,0,1,9.788,5.237a7.357,7.357,0,0,1-2.6-2.059.917.917,0,1,0-1.556.97c.123.2,3.057,4.756,13.614,5.007v2.8a8.941,8.941,0,0,0-7.176,4.917C11.035,17.9,4.583,24.58,4.583,33a37.64,37.64,0,0,0,.954,7.58c1.249,5.4,3.46,9.228,6.577,11.372a8.923,8.923,0,0,0,8.052,4.879,8.855,8.855,0,0,0,5.654-1.955,4.664,4.664,0,0,0,.848.435,9.942,9.942,0,0,0,3.581.6,9.946,9.946,0,0,0,3.581-.6q.234-.094.433-.195a3.4,3.4,0,0,0,1.571,1.111,10.944,10.944,0,0,0,7.163,0,4.417,4.417,0,0,0,1-.543,4.417,4.417,0,0,0,1,.543,10.944,10.944,0,0,0,7.163,0c1.669-.668,1.919-1.632,1.919-2.147s-.249-1.48-1.919-2.147a8.2,8.2,0,0,0-1.728-.458,2.528,2.528,0,0,0-.559-2.377l-.015-.019c2.046-2.666,4.217-7.508,4.221-16.056.03-.621.2-7.869-7.48-16.127ZM24.75,53.166a1.644,1.644,0,0,0,.014.211A6.946,6.946,0,0,1,20.167,55a7.118,7.118,0,0,1-6.49-4.025.917.917,0,0,0-.342-.408C6.543,46.12,6.417,33.128,6.417,33c0-8.16,6.975-14.85,7.045-14.916a.936.936,0,0,0,.214-.305,7.244,7.244,0,0,1,12.981,0,.916.916,0,0,0,.175.269A27.03,27.03,0,0,1,33.18,28.487a14.315,14.315,0,0,1,.738,4.455c0,.019,0,.038,0,.057,0,7.714-1.851,12.066-3.4,14.358a8.413,8.413,0,0,1-3.33,3.115.925.925,0,0,0-.524.5s-.01.024-.03.065C25,51.7,24.75,52.655,24.75,53.166ZM39.136,44.9A3.269,3.269,0,0,0,37.5,43.686a7.57,7.57,0,0,0-1.183-.356,9.065,9.065,0,0,1,2.186-.247c2.152,0,3.408.617,3.644.917A4.97,4.97,0,0,1,39.136,44.9Zm2.179,1.5a1.882,1.882,0,0,0-.181.651,10.631,10.631,0,0,0-2-.285l.021-.035A10.422,10.422,0,0,0,41.315,46.4ZM35.749,33.139c0-.038,0-.076,0-.115,0-.077.01-.257,0-.529a8.454,8.454,0,0,1,2.747-.412c2.145,0,3.4.613,3.642.914-.01.012-.024.026-.04.042a9.1,9.1,0,0,0-2.6.564,4.4,4.4,0,0,0-1.007.547A6.278,6.278,0,0,0,35.749,33.139Zm1.808,2.609c-.01.011-.024.026-.039.041a10.067,10.067,0,0,0-1.87.319q.037-.546.061-1.115A3.6,3.6,0,0,1,37.557,35.748Zm-.04-5.458a10,10,0,0,0-1.948.342c-.058-.365-.134-.767-.233-1.2a4.1,4.1,0,0,1,2.221.816A.582.582,0,0,1,37.517,30.29Zm-2.056,7.824a7.954,7.954,0,0,1,3.039-.531c2.145,0,3.4.613,3.642.914-.01.012-.024.026-.04.042a9.1,9.1,0,0,0-2.6.564,4.418,4.418,0,0,0-1,.543,4.418,4.418,0,0,0-1-.543,8.594,8.594,0,0,0-2.1-.512c.021-.157.041-.316.06-.477Zm6.62-1.761a9.1,9.1,0,0,0-2.6-.564c-.016-.015-.03-.03-.04-.042.242-.3,1.5-.914,3.642-.914s3.408.617,3.644.917c-.236.3-1.492.917-3.644.917-.121,0-.242,0-.362-.007A5,5,0,0,0,42.081,36.352Zm.64-5.193a4.989,4.989,0,0,0-.64-.307,9.1,9.1,0,0,0-2.6-.564c-.016-.016-.03-.03-.04-.042.241-.3,1.5-.914,3.642-.914s3.408.617,3.644.917c-.236.3-1.492.917-3.644.917-.121,0-.242,0-.362-.007ZM42.1,27.539a9.1,9.1,0,0,0-2.6.564,4.417,4.417,0,0,0-1,.543,4.417,4.417,0,0,0-1-.543,9.1,9.1,0,0,0-2.6-.564c-.016-.016-.03-.03-.04-.042.242-.3,1.5-.914,3.642-.914s3.4.613,3.642.914c-.01.012-.023.026-.04.042ZM35.109,40.4a4.372,4.372,0,0,1,2.449.845c-.01.011-.024.026-.04.042a9.1,9.1,0,0,0-2.6.564l-.138.057q.178-.721.328-1.508Zm6.972,1.45a9.162,9.162,0,0,0-2.665-.568c.16-.284,1.428-.951,3.667-.951,2.152,0,3.408.617,3.644.917-.236.3-1.492.917-3.644.917-.121,0-.241,0-.362-.007a4.983,4.983,0,0,0-.64-.308Zm4.214,6.61c1.925,1.1,2.42,2.112,2.415,2.377-.276.061-1.292-.049-3.339-1.219-1.926-1.1-2.421-2.113-2.415-2.377.274-.062,1.291.048,3.339,1.219Zm-.756-2.434a7.1,7.1,0,0,0-2.223-.617A1.894,1.894,0,0,0,44,44v-.034a9.159,9.159,0,0,0,2.665-.568c.171-.069.326-.14.469-.214a12.515,12.515,0,0,1-1.6,2.845ZM46.665,39.1A9.161,9.161,0,0,0,44,38.534c0-.011,0-.023,0-.034v-.034a9.159,9.159,0,0,0,2.665-.568c1.4-.559,1.8-1.325,1.893-1.862a24.651,24.651,0,0,1-.475,3.987,3.7,3.7,0,0,0-1.419-.92Zm0-5.5A9.16,9.16,0,0,0,44,33.034c0-.011,0-.023,0-.034v-.034a9.159,9.159,0,0,0,2.665-.568,3.21,3.21,0,0,0,1.667-1.259,25.927,25.927,0,0,1,.251,3.694c0,.249,0,.495-.01.739-.059-.538-.416-1.373-1.909-1.97Zm0-5.5A9.16,9.16,0,0,0,44,27.534c0-.011,0-.023,0-.034,0-.042,0-.088-.006-.136a5.955,5.955,0,0,0,2.9-1.117,14.305,14.305,0,0,1,.951,2.545,4.107,4.107,0,0,0-1.185-.69Zm-3.9-2.452-.055,0a5,5,0,0,0-.626-.3,9.161,9.161,0,0,0-2.666-.568c0-.011,0-.023,0-.034s0-.023,0-.034a9.161,9.161,0,0,0,2.666-.568,5.018,5.018,0,0,0,.628-.3,5.013,5.013,0,0,1,3.1.91,4.932,4.932,0,0,1-3.046.892ZM38.5,22.916c-2.152,0-3.408-.617-3.644-.917a5.191,5.191,0,0,1,3.228-.908c.138,0,.276-.008.416-.008,2.152,0,3.408.617,3.644.917C41.907,22.3,40.651,22.916,38.5,22.916Zm-3.581,1.231a9.1,9.1,0,0,0,2.6.564c.015.014.028.028.038.039-.01.011-.023.025-.037.039a9.1,9.1,0,0,0-2.6.564,4.785,4.785,0,0,0-.779.391c-.254-.6-.547-1.235-.886-1.888.219-.014.44-.022.663-.022.121,0,.242,0,.362.007a4.99,4.99,0,0,0,.64.307ZM33.788,51a9.923,9.923,0,0,0-3.431-.585,13.073,13.073,0,0,0,1.651-1.987,11.433,11.433,0,0,0,1.27.136A1.747,1.747,0,0,0,33,49.5,1.935,1.935,0,0,0,33.788,51ZM30.25,54.083c-2.152,0-3.408-.617-3.644-.917.236-.3,1.492-.917,3.644-.917s3.408.617,3.644.917C33.657,53.466,32.4,54.083,30.25,54.083Zm3.667-7.333c-.3,0-.6-.013-.889-.038a19.3,19.3,0,0,0,.808-1.793l.082,0c2.152,0,3.408.617,3.644.917-.236.3-1.492.917-3.644.917Zm.94,2.75c.236-.3,1.492-.917,3.644-.917s3.408.617,3.644.917c-.236.3-1.492.917-3.644.917S35.092,49.8,34.856,49.5Zm.106,2.164a7.285,7.285,0,0,0,.867.275q-.231.093-.426.192a2.482,2.482,0,0,0-.441-.467ZM39.416,55c-2.152,0-3.408-.617-3.644-.917.236-.3,1.492-.917,3.644-.917s3.408.617,3.644.917C42.824,54.383,41.568,55,39.416,55ZM43,51.936a7.235,7.235,0,0,0-.91-.291,3.561,3.561,0,0,0,1.479-1q.418.292.895.565c.332.19.679.377,1.033.55-.171.053-.336.111-.493.174a4.418,4.418,0,0,0-1,.543,4.417,4.417,0,0,0-1-.543Zm9.229,2.147c-.236.3-1.492.917-3.644.917s-3.408-.617-3.644-.917c.236-.3,1.492-.917,3.644-.917S51.991,53.783,52.227,54.083Zm.025-21.14c0,.019,0,.038,0,.057,0,7.866-1.881,12.311-3.7,14.771a11.143,11.143,0,0,0-1.349-.9l0,0c2.108-2.917,3.217-7.049,3.217-12.035,0-4.776-1.016-8.576-3.021-11.295a10.535,10.535,0,0,0-8.611-4.285c-.095,0-.189,0-.285,0q-.253,0-.5.01a10.746,10.746,0,0,0-6.222,2.078q-.59-.9-1.3-1.831c.772-.9,1.313-1.418,1.319-1.424a.914.914,0,0,0,.215-.308,7.245,7.245,0,0,1,12.98,0,.916.916,0,0,0,.175.269,27.03,27.03,0,0,1,6.349,10.444,14.3,14.3,0,0,1,.738,4.455Z"/>
          <path id="Trazado_124616" data-name="Trazado 124616" d="M20.167,15.583a.917.917,0,0,0-.917.917V52.25a.917.917,0,0,0,1.833,0V16.5A.917.917,0,0,0,20.167,15.583Z"/>
          <path id="Trazado_124617" data-name="Trazado 124617" d="M16.943,17.531a.917.917,0,0,0-1.246.359c-.192.347-4.7,8.591-4.7,16.943C11,43.21,15.529,50.59,15.721,50.9a.917.917,0,0,0,1.557-.968c-.044-.072-4.445-7.258-4.445-15.1,0-7.87,4.424-15.976,4.469-16.057a.917.917,0,0,0-.359-1.245Z"/>
          <path id="Trazado_124618" data-name="Trazado 124618" d="M24.635,17.89a.917.917,0,1,0-1.6.887c.045.081,4.469,8.172,4.469,16.056,0,7.842-4.4,15.028-4.445,15.1a.917.917,0,1,0,1.557.968c.193-.31,4.721-7.69,4.721-16.067C29.333,26.481,24.827,18.236,24.635,17.89Z"/>
        </g>
      </g>
    </g>
  </g>
</svg>
