<svg xmlns="http://www.w3.org/2000/svg" xmlns:xlink="http://www.w3.org/1999/xlink" width="127" height="99" viewBox="0 0 127 99">
  <defs>
    <clipPath id="clip-path">
      <rect id="Rect치ngulo_35555" data-name="Rect치ngulo 35555" width="74" height="74" transform="translate(-0.148 0.279)" fill="#fff" stroke="#707070" stroke-width="1"/>
    </clipPath>
  </defs>
  <g id="Grupo_175956" data-name="Grupo 175956" transform="translate(-757 -1264)">
    <rect id="Rect치ngulo_33958" data-name="Rect치ngulo 33958" width="127" height="99" rx="10" transform="translate(757 1264)" fill="#fcc02d"/>
    <g id="Enmascarar_grupo_221" data-name="Enmascarar grupo 221" transform="translate(783.148 1276.721)" clip-path="url(#clip-path)">
      <g id="ley" transform="translate(0 0)">
        <g id="Grupo_175609" data-name="Grupo 175609" transform="translate(1.087 1.087)">
          <g id="Grupo_175608" data-name="Grupo 175608">
            <g id="Grupo_175602" data-name="Grupo 175602">
              <g id="Grupo_175601" data-name="Grupo 175601">
                <path id="Trazado_124237" data-name="Trazado 124237" d="M10.767,68.872H7.9a6.365,6.365,0,0,1-6.365-6.365V7.9A6.365,6.365,0,0,1,7.9,1.538h2.864Z" transform="translate(-1.538 -1.538)" fill="#964f09"/>
                <path id="Trazado_124238" data-name="Trazado 124238" d="M52.445,68.872H14.6V1.538H52.445A2.861,2.861,0,0,1,55.306,4.4V66.011A2.861,2.861,0,0,1,52.445,68.872Z" transform="translate(-5.368 -1.538)" fill="#e68d35"/>
                <path id="Trazado_124239" data-name="Trazado 124239" d="M65.746,1.538h-5.8A2.861,2.861,0,0,1,62.81,4.4V66.011a2.861,2.861,0,0,1-2.861,2.861h5.8a2.861,2.861,0,0,0,2.861-2.861V4.4a2.861,2.861,0,0,0-2.861-2.861Z" transform="translate(-18.67 -1.538)" fill="#d47619"/>
                <path id="Trazado_124240" data-name="Trazado 124240" d="M53.069,87.588H9.834a2.871,2.871,0,0,1-2.871-2.871V81.661A2.871,2.871,0,0,1,9.834,78.79H53.069Z" transform="translate(-3.129 -24.196)" fill="#fff"/>
                <path id="Trazado_124241" data-name="Trazado 124241" d="M20.428,93.424,14.6,98.091V85.15h5.831Z" transform="translate(-5.368 -26.061)" fill="#73a4ff"/>
              </g>
              <path id="Trazado_124242" data-name="Trazado 124242" d="M27.3,15.066H50.055v15.09H27.3Z" transform="translate(-9.094 -5.506)" fill="#fff"/>
            </g>
            <g id="Grupo_175607" data-name="Grupo 175607" transform="translate(27.798 29.357)">
              <path id="Trazado_124243" data-name="Trazado 124243" d="M78.946,101.513h-26.5a2.347,2.347,0,0,1-2.347-2.347h0a2.347,2.347,0,0,1,2.347-2.347h26.5a2.347,2.347,0,0,1,2.347,2.347h0A2.348,2.348,0,0,1,78.946,101.513Z" transform="translate(-43.577 -58.84)" fill="#73a4ff"/>
              <path id="Trazado_124244" data-name="Trazado 124244" d="M88.514,96.817h-5.8a2.347,2.347,0,0,1,2.347,2.347h0a2.347,2.347,0,0,1-2.347,2.347h5.8a2.347,2.347,0,0,0,2.347-2.347h0A2.347,2.347,0,0,0,88.514,96.817Z" transform="translate(-53.146 -58.84)" fill="#5c95ff"/>
              <path id="Trazado_124245" data-name="Trazado 124245" d="M77.812,94.782h-19.3a4.924,4.924,0,0,1,4.924-4.924h9.45a4.924,4.924,0,0,1,4.924,4.924h0Z" transform="translate(-46.047 -56.799)" fill="#ffd52b"/>
              <path id="Trazado_124246" data-name="Trazado 124246" d="M76.448,89.857h-5.8a4.924,4.924,0,0,1,4.924,4.924h5.8A4.924,4.924,0,0,0,76.448,89.857Z" transform="translate(-49.607 -56.799)" fill="#fcca00"/>
              <g id="Grupo_175603" data-name="Grupo 175603" transform="translate(19.748)">
                <path id="Trazado_124247" data-name="Trazado 124247" d="M73.553,76.067H68.817V45.447a2.368,2.368,0,0,1,4.736,0Z" transform="translate(-68.817 -43.079)" fill="#73a4ff"/>
              </g>
              <path id="Trazado_124248" data-name="Trazado 124248" d="M76.812,57.862H60.933v0a7.8,7.8,0,0,1,7.8-7.8h.275a7.8,7.8,0,0,1,7.8,7.8Z" transform="translate(-46.757 -45.126)" fill="#ffd52b"/>
              <path id="Trazado_124249" data-name="Trazado 124249" d="M71.1,50.059h-.275a7.781,7.781,0,0,0-2.761.5,7.8,7.8,0,0,1,5.041,7.3v0h5.8v0A7.8,7.8,0,0,0,71.1,50.059Z" transform="translate(-48.849 -45.126)" fill="#fcca00"/>
              <g id="Grupo_175606" data-name="Grupo 175606" transform="translate(0 23.419)">
                <g id="Grupo_175604" data-name="Grupo 175604">
                  <path id="Trazado_124250" data-name="Trazado 124250" d="M52.573,80.955H43.241a2.369,2.369,0,0,1,0-4.738h9.332a2.369,2.369,0,0,1,0,4.738Z" transform="translate(-40.873 -76.217)" fill="#ffd52b"/>
                </g>
                <path id="Trazado_124251" data-name="Trazado 124251" d="M55.023,76.217h-5.8a2.369,2.369,0,0,1,0,4.738h5.8a2.369,2.369,0,0,0,0-4.738Z" transform="translate(-43.323 -76.217)" fill="#fcca00"/>
                <g id="Grupo_175605" data-name="Grupo 175605" transform="translate(30.164)">
                  <path id="Trazado_124252" data-name="Trazado 124252" d="M95.256,80.955H85.923a2.369,2.369,0,0,1,0-4.738h9.332a2.369,2.369,0,0,1,0,4.738Z" transform="translate(-83.556 -76.217)" fill="#ffd52b"/>
                </g>
                <path id="Trazado_124253" data-name="Trazado 124253" d="M97.705,76.217h-5.8a2.369,2.369,0,0,1,0,4.738h5.8a2.369,2.369,0,0,0,0-4.738Z" transform="translate(-55.841 -76.217)" fill="#fcca00"/>
              </g>
            </g>
          </g>
          <path id="Trazado_124254" data-name="Trazado 124254" d="M82.92,59.76h-38.3a1.087,1.087,0,1,0,0,2.174h38.3a1.087,1.087,0,1,0,0-2.174Z" transform="translate(-13.854 -18.614)" fill="#ffd52b"/>
        </g>
        <g id="Grupo_175610" data-name="Grupo 175610" transform="translate(0 0)">
          <path id="Trazado_124255" data-name="Trazado 124255" d="M49.6,30.792a1.087,1.087,0,0,0,1.087-1.087V14.615A1.087,1.087,0,0,0,49.6,13.528H26.848a1.087,1.087,0,0,0-1.087,1.087v15.09a1.087,1.087,0,0,0,1.087,1.087ZM27.935,15.7H48.516V28.618H27.935Z" transform="translate(-7.556 -3.968)" fill="#060606"/>
          <path id="Trazado_124256" data-name="Trazado 124256" d="M71.016,52.787l-3.332-8.381h2.468a1.087,1.087,0,1,0,0-2.174H59.976a8.909,8.909,0,0,0-5.521-7.3V32.812a3.46,3.46,0,0,0-2.345-3.271V3.948A3.952,3.952,0,0,0,48.163,0H7.452A7.46,7.46,0,0,0,0,7.452v5.3a1.087,1.087,0,1,0,2.174,0v-5.3A5.284,5.284,0,0,1,7.452,2.174H9.229v52.42H7.792a3.962,3.962,0,0,0-3.958,3.958v3.057a3.962,3.962,0,0,0,3.958,3.958H9.229v1.767H7.452a5.284,5.284,0,0,1-5.278-5.278V18.261a1.087,1.087,0,1,0-2.174,0V62.056a7.46,7.46,0,0,0,7.452,7.452H9.229v3.609a1.094,1.094,0,0,0,1.766.849l5.569-4.458H34.555a3.469,3.469,0,0,0,3.194,4.7H56.087a1.087,1.087,0,1,0,0-2.174H37.749a1.262,1.262,0,0,1,0-2.522h26.5a1.262,1.262,0,0,1,0,2.522H61.878a1.087,1.087,0,1,0,0,2.174h2.375c4.419,0,4.426-6.87,0-6.87H61.636a6.02,6.02,0,0,0-5.91-4.919h-1.27V44.407H64.481L61.15,52.787a3.456,3.456,0,0,0,.267,6.9h9.332a3.456,3.456,0,0,0,.267-6.9Zm-23.47,1.807h-3.92a3.459,3.459,0,0,0-2.774-1.807l-3.332-8.381H47.546Zm-16.293.355h9.332a1.282,1.282,0,0,1,0,2.564H31.253a1.282,1.282,0,0,1,0-2.564Zm2.077-2.174,2.59-6.514,2.59,6.514ZM57.766,42.093H44.236a6.726,6.726,0,0,1,6.627-5.63A6.82,6.82,0,0,1,57.766,42.093Zm-5.484-7.728a10.5,10.5,0,0,0-2.562,0V32.812a1.281,1.281,0,1,1,2.562,0ZM11.4,2.174H48.163a1.776,1.776,0,0,1,1.774,1.774V29.526a3.46,3.46,0,0,0-2.391,3.287v2.122a8.91,8.91,0,0,0-5.52,7.3H31.849a1.087,1.087,0,1,0,0,2.174h2.468l-3.332,8.381a3.46,3.46,0,0,0-2.774,1.807H11.4Zm0,59.089H15.06v6.665L11.4,70.855Zm5.831,6.071V65.567H40.99a5.968,5.968,0,0,0-.624,1.767H17.234Zm42.171,0H42.6a3.844,3.844,0,0,1,3.678-2.745h9.45A3.844,3.844,0,0,1,59.4,67.334ZM46.276,62.415A5.974,5.974,0,0,0,43,63.393H17.234V60.176a1.087,1.087,0,0,0-1.087-1.087H10.316a1.087,1.087,0,0,0-1.087,1.087v3.217H7.792a1.786,1.786,0,0,1-1.784-1.784V58.552a1.786,1.786,0,0,1,1.784-1.784H27.84a3.461,3.461,0,0,0,3.413,2.92h9.332A3.46,3.46,0,0,0,44,56.768h3.548v5.647h-1.27Zm6.006-.07H49.72V44.407h2.562Zm16.391-9.569H63.493l2.59-6.514Zm2.076,4.738H61.417a1.282,1.282,0,0,1,0-2.564h9.332a1.282,1.282,0,0,1,0,2.564Z" transform="translate(0 0)" fill="#060606"/>
        </g>
      </g>
    </g>
  </g>
</svg>
